# Blender v2.91.2 OBJ File: ''
# www.blender.org
mtllib Semi_Circle.mtl
o Cylinder
v 1.000000 1.000000 -0.000000
v -1.000000 1.000000 0.000000
v 1.000000 -1.000000 -0.000000
v -1.000000 -1.000000 -0.000000
v 1.000000 -0.980785 -0.195091
v -1.000000 -0.980785 -0.195091
v 1.000000 -0.923879 -0.382684
v -1.000000 -0.923879 -0.382684
v 1.000000 -0.831469 -0.555571
v -1.000000 -0.831469 -0.555571
v 1.000000 -0.707106 -0.707107
v -1.000000 -0.707106 -0.707107
v 1.000000 -0.555570 -0.831470
v -1.000000 -0.555570 -0.831470
v 1.000000 -0.382683 -0.923880
v -1.000000 -0.382683 -0.923880
v 1.000000 -0.195089 -0.980785
v -1.000000 -0.195090 -0.980785
v 1.000000 0.000001 -1.000000
v -1.000000 0.000001 -1.000000
v 1.000000 0.195091 -0.980785
v -1.000000 0.195091 -0.980785
v 1.000000 0.382684 -0.923879
v -1.000000 0.382684 -0.923879
v 1.000000 0.555571 -0.831469
v -1.000000 0.555571 -0.831469
v 1.000000 0.707108 -0.707106
v -1.000000 0.707108 -0.707106
v 1.000000 0.831470 -0.555569
v -1.000000 0.831470 -0.555569
v 1.000000 0.923880 -0.382682
v -1.000000 0.923880 -0.382682
v 1.000000 0.980786 -0.195089
v -1.000000 0.980785 -0.195089
vt 0.000000 0.500000
vt 0.000000 1.000000
vt 0.500000 1.000000
vt 0.500000 0.500000
vt 0.468750 0.500000
vt 0.437500 0.500000
vt 0.406250 0.500000
vt 0.375000 0.500000
vt 0.343750 0.500000
vt 0.312500 0.500000
vt 0.281250 0.500000
vt 0.250000 0.500000
vt 0.218750 0.500000
vt 0.187500 0.500000
vt 0.156250 0.500000
vt 0.125000 0.500000
vt 0.093750 0.500000
vt 0.062500 0.500000
vt 0.031250 0.500000
vt 0.468750 1.000000
vt 0.437500 1.000000
vt 0.406250 1.000000
vt 0.375000 1.000000
vt 0.343750 1.000000
vt 0.312500 1.000000
vt 0.281250 1.000000
vt 0.250000 1.000000
vt 0.218750 1.000000
vt 0.187500 1.000000
vt 0.156250 1.000000
vt 0.125000 1.000000
vt 0.093750 1.000000
vt 0.062500 1.000000
vt 0.031250 1.000000
vn 0.0000 -0.0000 1.0000
vn 1.0000 0.0000 0.0000
vn 0.0000 -0.9952 -0.0980
vn 0.0000 -0.9808 -0.1951
vn 0.0000 -0.9239 -0.3827
vn 0.0000 -0.8315 -0.5556
vn 0.0000 -0.7071 -0.7071
vn 0.0000 -0.5556 -0.8315
vn -0.0000 -0.3827 -0.9239
vn -0.0000 -0.1951 -0.9808
vn -0.0000 0.0000 -1.0000
vn -0.0000 0.1951 -0.9808
vn -0.0000 0.3827 -0.9239
vn -0.0000 0.5556 -0.8315
vn -0.0000 0.7071 -0.7071
vn -0.0000 0.8315 -0.5556
vn -0.0000 0.9239 -0.3827
vn -0.0000 0.9808 -0.1951
vn -0.0000 0.9952 -0.0980
vn -1.0000 -0.0000 0.0000
usemtl None
s 1
f 1/1/1 2/2/1 4/3/1 3/4/1
f 1/1/2 3/4/2 5/5/2 7/6/2 9/7/2 11/8/2 13/9/2 15/10/2 17/11/2 19/12/2 21/13/2 23/14/2 25/15/2 27/16/2 29/17/2 31/18/2 33/19/2
f 3/4/3 4/3/3 6/20/4 5/5/4
f 5/5/4 6/20/4 8/21/5 7/6/5
f 7/6/5 8/21/5 10/22/6 9/7/6
f 9/7/6 10/22/6 12/23/7 11/8/7
f 11/8/7 12/23/7 14/24/8 13/9/8
f 13/9/8 14/24/8 16/25/9 15/10/9
f 15/10/9 16/25/9 18/26/10 17/11/10
f 17/11/10 18/26/10 20/27/11 19/12/11
f 19/12/11 20/27/11 22/28/12 21/13/12
f 21/13/12 22/28/12 24/29/13 23/14/13
f 23/14/13 24/29/13 26/30/14 25/15/14
f 25/15/14 26/30/14 28/31/15 27/16/15
f 27/16/15 28/31/15 30/32/16 29/17/16
f 29/17/16 30/32/16 32/33/17 31/18/17
f 31/18/17 32/33/17 34/34/18 33/19/18
f 33/19/18 34/34/18 2/2/19 1/1/19
f 4/3/20 2/2/20 34/34/20 32/33/20 30/32/20 28/31/20 26/30/20 24/29/20 22/28/20 20/27/20 18/26/20 16/25/20 14/24/20 12/23/20 10/22/20 8/21/20 6/20/20
